# xmcd CD database file
#
# Track frame offsets:
#        150
#        19102
#        38954
#        63588
#        79761
#
# Disc length: 1381 seconds
#
# Revision: 0
# Processed by: cddbd v1.5.2PL0 Copyright (c) Steve Scherf et al.
# Submitted via: CUERipper 2.1.5
#
DISCID=39056305
DTITLE=The Bandettes - The Joker
DYEAR=2015
DGENRE=
TTITLE0=One Day You'll Be a Man
TTITLE1=Down the Road
TTITLE2=Lost or Found
TTITLE3=The Joker
TTITLE4=Shame
EXTD=
EXTT0=
EXTT1=
EXTT2=
EXTT3=
EXTT4=
PLAYORDER=
